<?xml version="1.0" encoding="UTF-8"?><svg id="Layer_2" xmlns="http://www.w3.org/2000/svg" viewBox="0 0 77.69 80.59"><defs><style>.cls-1{fill:#93bc38;stroke-width:0px;}</style></defs><g id="Layer_1-2"><path class="cls-1" d="M74.06,63.11l3.63-2.19c-5.24-1.07-9.87-2.17-20.11-2.57,9-8.02,17.27-27.42,19.11-33.37-4.42,2.17-19.07,9.73-27.98,18.55,1.32-13.56-7.11-37.64-9.86-43.53-2.81,6.14-11.15,29.67-9.86,43.53C20.37,34.97,6.09,27.46,1,24.98c1.82,5.9,10.13,25.39,19.11,33.37-10.26.4-14.85,1.5-20.11,2.57,4.38,2.72,14.59,8.04,23.7,9.44-5.56,5.09-6.37,6.65-9.37,10.22,6.77-.67,18.22-2.78,24.51-9.67,6.36,6.93,17.7,8.99,24.51,9.67-2.99-3.56-3.82-5.15-9.37-10.22,5.65-.32,19.18-6.73,20.08-7.26ZM25.49,44.9c5.73,4.8,4.47,13.39,7.96,19.38-11.16-5.85-20.03-18.11-23.78-29.88,4.32,2.3,12.09,6.71,15.82,10.5ZM20.15,61.73c4.87-.48,7.98,4.05,12.01,5.74-7.04.44-14.1-1.34-20.47-4.94,2.33-.36,5.7-.79,8.46-.79ZM23.52,75.3c3.37-3.93,5.88-4.66,10.39-4.59-3.21,2.34-5.72,3.67-10.39,4.59ZM37,63.52c-7.06-15.12-5.57-32.97,1.85-47.62,7.83,15.6,9.31,35.45,0,50.8-.63-.98-1.34-2.14-1.85-3.18ZM52.2,44.91c3.73-3.79,11.49-8.2,15.81-10.5-3.74,11.8-12.63,24.04-23.77,29.88,3.49-5.95,2.24-14.59,7.96-19.38ZM47.35,70.89c3.04.23,4.12,1.9,6.84,4.38-4.68-.87-7.21-2.24-10.4-4.56,1.14.12,2.33.18,3.57.18ZM49.31,67.46c-1.24.07-2.55.08-3.78,0,7.59-5.3,11.07-6.99,20.46-4.98-5.15,2.94-11.06,4.85-16.68,4.97Z"/></g></svg>