<?xml version="1.0" encoding="UTF-8"?><svg id="Layer_2" xmlns="http://www.w3.org/2000/svg" viewBox="0 0 379.83 80.59"><defs><style>.cls-1{fill:#fff;}.cls-1,.cls-2{stroke-width:0px;}.cls-2{fill:#ef7829;}</style></defs><g id="Layer_1-2"><path class="cls-2" d="m74.06,63.11l3.63-2.19c-5.24-1.07-9.87-2.17-20.11-2.57,9-8.02,17.27-27.42,19.11-33.37-4.42,2.17-19.07,9.73-27.98,18.55,1.32-13.56-7.11-37.64-9.86-43.53-2.81,6.14-11.15,29.67-9.86,43.53C20.37,34.97,6.09,27.46,1,24.98c1.82,5.9,10.13,25.39,19.11,33.37-10.26.4-14.85,1.5-20.11,2.57,4.38,2.72,14.59,8.04,23.7,9.44-5.56,5.09-6.37,6.65-9.37,10.22,6.77-.67,18.22-2.78,24.51-9.67,6.36,6.93,17.7,8.99,24.51,9.67-2.99-3.56-3.82-5.15-9.37-10.22,5.65-.32,19.18-6.73,20.08-7.26Zm-48.57-18.2c5.73,4.8,4.47,13.39,7.96,19.38-11.16-5.85-20.03-18.11-23.78-29.88,4.32,2.3,12.09,6.71,15.82,10.5Zm-5.34,16.82c4.87-.48,7.98,4.05,12.01,5.74-7.04.44-14.1-1.34-20.47-4.94,2.33-.36,5.7-.79,8.46-.79Zm3.37,13.58c3.37-3.93,5.88-4.66,10.39-4.59-3.21,2.34-5.72,3.67-10.39,4.59Zm13.48-11.78c-7.06-15.12-5.57-32.97,1.85-47.62,7.83,15.6,9.31,35.45,0,50.8-.63-.98-1.34-2.14-1.85-3.18Zm15.2-18.61c3.73-3.79,11.49-8.2,15.81-10.5-3.74,11.8-12.63,24.04-23.77,29.88,3.49-5.95,2.24-14.59,7.96-19.38Zm-4.85,25.98c3.04.23,4.12,1.9,6.84,4.38-4.68-.87-7.21-2.24-10.4-4.56,1.14.12,2.33.18,3.57.18Zm1.96-3.43c-1.24.07-2.55.08-3.78,0,7.59-5.3,11.07-6.99,20.46-4.98-5.15,2.94-11.06,4.85-16.68,4.97Z"/><path class="cls-1" d="m126.27,57.56c.56,15.57-22,14.09-34.22,13.81v-.31c1.49-.87,3.24-2.36,3.24-4.85V31.55c0-2.49-1.74-3.98-3.24-4.79v-.44h14.5c17.73-1.21,18.1,16.41,3.73,17.92,7.22.37,15.99,4.04,15.99,13.32Zm-24.74-30.24c3.26.66,1.15,14.62,1.71,16.74,4.93.52,10.5-1.13,10.45-7.34-.17-9.22-6.49-9.58-12.17-9.4Zm4.89,43.06c19.07-.02,12.7-28.52-3.17-25.33-.71,2.26,1.83,24.91-1.83,25.33h5Z"/><path class="cls-1" d="m157.32,67.26c0,1.87,1.31,3.17,2.55,3.86v.25h-9.89v-4.6c-6.08,8.78-21.76,6.59-20.66-6.72,0,0,0-15.62,0-15.62,0-1.87-1.31-2.99-2.55-3.67v-.31h10.27v21.78c-.66,8.65,9.15,8.66,12.57,4.23v-22.03c0-1.87-1.31-2.99-2.55-3.67v-.31h10.27v26.82Z"/><path class="cls-1" d="m192.22,67.26c0,1.87,1.31,3.17,2.55,3.86v.25h-10.14v-3.73c-8.29,9.79-24.6,2.58-23.65-11.7-.59-13.64,15.34-21.61,23.52-11.82v-14c0-1.87-1.31-3.05-2.55-3.73v-.25h10.27v41.13Zm-7.72-.25v-22.21c-20.2-12.99-20.12,35.24,0,22.21Z"/><path class="cls-1" d="m262.48,67.26c0,1.87,1.31,3.17,2.55,3.86v.25h-9.89v-4.6c-6.08,8.78-21.76,6.59-20.66-6.72,0,0,0-15.62,0-15.62,0-1.87-1.31-2.99-2.55-3.67v-.31h10.27v21.78c-.66,8.65,9.15,8.66,12.57,4.23v-22.03c0-1.87-1.31-2.99-2.55-3.67v-.31h10.27v26.82Z"/><path class="cls-1" d="m297.2,67.26c0,1.87,1.31,3.17,2.55,3.86v.25h-10.14v-3.73c-8.29,9.79-24.6,2.58-23.65-11.7-.59-13.64,15.34-21.61,23.52-11.82v-14c0-1.87-1.31-3.05-2.55-3.73v-.25h10.27v41.13Zm-7.72-.25v-22.21c-20.2-12.99-20.12,35.24,0,22.21Z"/><path class="cls-1" d="m331.73,67.26c0,1.87,1.31,3.17,2.55,3.86v.25h-10.14v-3.73c-8.29,9.79-24.6,2.58-23.65-11.7-.59-13.64,15.34-21.61,23.52-11.82v-14c0-1.87-1.31-3.05-2.55-3.73v-.25h10.27v41.13Zm-7.72-.25v-22.21c-20.2-12.99-20.12,35.24,0,22.21Z"/><path class="cls-1" d="m336.83,71.37v-.25c1.24-.68,2.49-1.87,2.49-3.73v-22.84c0-1.87-1.31-3.11-2.55-3.8v-.31h10.27v26.94c0,1.87,1.31,3.05,2.55,3.73v.25h-12.76Zm1.49-40.38c-.07-6.02,9.53-6.03,9.46,0,.04,6.19-9.52,6.04-9.46,0Z"/><path class="cls-1" d="m358.8,53.76c-1.21,13.67,13.12,19.97,20.47,9.77l.31.25c-5.74,13.56-30.01,9.98-29-7.47-.71-19.97,29.31-22.83,29.25-2.55h-21.03Zm0-.93h14.06c.51-15.82-14.04-16.6-14.06,0Z"/><path class="cls-1" d="m231.43,57.56c.56,15.57-22,14.09-34.22,13.81v-.31c1.49-.87,3.24-2.36,3.24-4.85V31.55c0-2.49-1.74-3.98-3.24-4.79v-.44h14.5c17.73-1.21,18.1,16.41,3.73,17.92,7.22.37,15.99,4.04,15.99,13.32Zm-24.74-30.24c3.26.66,1.15,14.62,1.71,16.74,4.93.52,10.5-1.13,10.45-7.34-.17-9.22-6.49-9.58-12.17-9.4Zm4.89,43.06c19.07-.02,12.7-28.52-3.17-25.33-.71,2.26,1.83,24.91-1.83,25.33h5Z"/></g></svg>